/* XPM */
static char * tomato_xpm[] = {
"12 12 111 2",
"  	c None",
". 	c #EC7551",
"+ 	c #D8563A",
"@ 	c #9A361E",
"# 	c #92421F",
"$ 	c #532E15",
"% 	c #A33E1E",
"& 	c #BB4826",
"* 	c #F08964",
"= 	c #E09574",
"- 	c #935A34",
"; 	c #8F3E26",
"> 	c #7E4827",
", 	c #573A1B",
"' 	c #81391A",
") 	c #BC421F",
"! 	c #BB3E1F",
"~ 	c #C9411D",
"{ 	c #ED4F23",
"] 	c #F2A383",
"^ 	c #C79E81",
"/ 	c #D27E63",
"( 	c #E78062",
"_ 	c #ED8962",
": 	c #F28554",
"< 	c #C96038",
"[ 	c #CE4224",
"} 	c #C41B0B",
"| 	c #CB1607",
"1 	c #DF2909",
"2 	c #E6431F",
"3 	c #E87F63",
"4 	c #E08467",
"5 	c #D85B40",
"6 	c #DC4B30",
"7 	c #EC5C32",
"8 	c #F2642E",
"9 	c #EA4C21",
"0 	c #CD260F",
"a 	c #BE180E",
"b 	c #BF0902",
"c 	c #DF1E07",
"d 	c #DE260C",
"e 	c #CD2A18",
"f 	c #BD2314",
"g 	c #BB1307",
"h 	c #CF1204",
"i 	c #E31D06",
"j 	c #E72407",
"k 	c #DB1E06",
"l 	c #E3281C",
"m 	c #CC130B",
"n 	c #C80701",
"o 	c #D81306",
"p 	c #D61604",
"q 	c #BF0802",
"r 	c #B30501",
"s 	c #B80401",
"t 	c #C70500",
"u 	c #D30B01",
"v 	c #D60D01",
"w 	c #D20D01",
"x 	c #D0160D",
"y 	c #C90B05",
"z 	c #CA0702",
"A 	c #D30803",
"B 	c #C60902",
"C 	c #C10502",
"D 	c #C20501",
"E 	c #C50501",
"F 	c #C80601",
"G 	c #C90600",
"H 	c #C80600",
"I 	c #C70501",
"J 	c #C90703",
"K 	c #CC0400",
"L 	c #C60901",
"M 	c #C30500",
"N 	c #BF0500",
"O 	c #BB0500",
"P 	c #BB0501",
"Q 	c #BA0300",
"R 	c #BC0300",
"S 	c #C00502",
"T 	c #BE0300",
"U 	c #B40703",
"V 	c #B70300",
"W 	c #B30300",
"X 	c #AB0200",
"Y 	c #A40200",
"Z 	c #9E0200",
"` 	c #9D0200",
" .	c #A30200",
"..	c #AC0300",
"+.	c #B50301",
"@.	c #B60300",
"#.	c #A70200",
"$.	c #A10200",
"%.	c #9A0100",
"&.	c #8C0000",
"*.	c #810000",
"=.	c #8D0100",
"-.	c #9C0200",
";.	c #A50200",
">.	c #9D0201",
",.	c #840100",
"'.	c #770000",
").	c #700000",
"!.	c #6F0000",
"~.	c #740000",
"{.	c #800201",
"                        ",
"    . + @ # $ % &       ",
"  * = - ; > , ' ) ! ~   ",
"{ ] ^ / ( _ : < [ } | 1 ",
"2 3 4 5 6 7 8 9 0 a b c ",
"d e f g h i j k l m n o ",
"p q r s t u v w x y z A ",
"p B C D E F G H H I J K ",
"L M N O P P Q Q R S D T ",
"U V W X Y Z `  ...+.@.#.",
"  $.Y %.&.*.*.=.-.;.>.  ",
"      ,.'.).!.~.{.      "};
