/* XPM */
static char * letter_xpm[] = {
"56 40 23 1",
" 	c None",
".	c #000000",
"+	c #020202",
"@	c #070707",
"#	c #0F0F0F",
"$	c #171717",
"%	c #1C1C1C",
"&	c #232323",
"*	c #212121",
"=	c #191919",
"-	c #161616",
";	c #090909",
">	c #050505",
",	c #FFFFFF",
"'	c #121212",
")	c #2A2A2A",
"!	c #0E0E0E",
"~	c #202020",
"{	c #303030",
"]	c #252525",
"^	c #1D1D1D",
"/	c #1F1F1F",
"(	c #242424",
"    ................................................    ",
"  ....................................................  ",
" .............+@#$%&*&=-;>............................. ",
" .....,,,,,,,,,,,,,,,,,,,,,,,,,,,,,,,,,,,,,,,,,,,,......",
".......,,,,,,,,,,,,,,,,,,,,,,,,,,,,,,,,,,,,,,,,,,.......",
"...,....,,,,,,,,,,,,,,,,,,,,,,,,,,,,,,,,,,,,,,,,....,...",
"...,,....,,,,,,,,,,,,,,,,,,,,,,,,,,,,,,,,,,,,,,....,,...",
"...,,,....,,,,,,,,,,,,,,,,,,,,,,,,,,,,,,,,,,,,....,,,...",
"...,,,,....,,,,,,,,,,,,,,,,,,,,,,,,,,,,,,,,,,....,,,,...",
"...,,,,,...',,,,,,,,,,,,,,,,,,,,,,,,,,,,,,,,....,,,,,...",
"...,,,,,,..'),,,,,,,,,,,,,,,,,,,,,,,,,,,,,,....,,,,,,...",
"...,,,,,,,.!~{,,,,,,,,,,,,,,,,,,,,,,,,,,,,....,,,,,,,...",
"...,,,,,,,,@=]{,,,,,,,,,,,,,,,,,,,,,,,,,,....,,,,,,,,...",
"...,,,,,,,,,!^]),,,,,,,,,,,,,,,,,,,,,,,,....,,,,,,,,,...",
"...,,,,,,,,,,!=/(,,,,,,,,,,,,,,,,,,,,,,....,,,,,,,,,,...",
"...,,,,,,,,,,,@!'',,,,,,,,,,,,,,,,,,,,....,,,,,,,,,,,...",
"...,,,,,,,,,,,,....,,,,,,,,,,,,,,,,,,+...,,,,,,,,,,,,...",
"...,,,,,,,,,,,,,....,,,,,,,,,,,,,,,,+...,,,,,,,,,,,,,...",
"...,,,,,,,,,,,,,,....,,,,,,,,,,,,,,+...,,,,,,,,,,,,,,...",
"...,,,,,,,,,,,,,,,....,,,,,,,,,,,,....,,,,,,,,,,,,,,,...",
"...,,,,,,,,,,,,,,,,...',,,,,,,,,,'...,,,,,,,,,,,,,,,,...",
"...,,,,,,,,,,,,,,,,,..'(,,,,,,,,('..,,,,,,,,,,,,,,,,,...",
"...,,,,,,,,,,,,,,,,...!/(,,,,,,(/!...,,,,,,,,,,,,,,,,...",
"...,,,,,,,,,,,,,,,....@=((,,,,((=@....,,,,,,,,,,,,,,,...",
"...,,,,,,,,,,,,,,....,,!^((,,((^!,,....,,,,,,,,,,,,,,...",
"...,,,,,,,,,,,,,....,,,,!=/((/=!,,,,....,,,,,,,,,,,,,...",
"...,,,,,,,,,,,,....,,,,,,@!''!@,,,,,,....,,,,,,,,,,,,...",
"...,,,,,,,,,,,....,,,,,,,,....,,,,,,,,....,,,,,,,,,,,...",
"...,,,,,,,,,,....,,,,,,,,,,..,,,,,,,,,,....,,,,,,,,,,...",
"...,,,,,,,,,....,,,,,,,,,,,,,,,,,,,,,,,,....,,,,,,,,,...",
"...,,,,,,,,....,,,,,,,,,,,,,,,,,,,,,,,,,,....,,,,,,,,...",
"...,,,,,,,....,,,,,,,,,,,,,,,,,,,,,,,,,,,,....,,,,,,,...",
"...,,,,,,....,,,,,,,,,,,,,,,,,,,,,,,,,,,,,,....,,,,,,...",
"...,,,,,....,,,,,,,,,,,,,,,,,,,,,,,,,,,,,,,,....,,,,,...",
"...,,,,....,,,,,,,,,,,,,,,,,,,,,,,,,,,,,,,,,,....,,,,...",
"....,,....,,,,,,,,,,,,,,,,,,,,,,,,,,,,,,,,,,,,....,,,...",
" ...,....,,,,,,,,,,,,,,,,,,,,,,,,,,,,,,,,,,,,,,....,... ",
" ...................................................... ",
"  ....................................................  ",
"    ................................................    "};
