/* XPM */
static char * letter_xpm[] = {
"56 40 2 1",
" 	c None",
".	c #000000",
"    ................................................    ",
"  ....................................................  ",
" ...................................................... ",
" .....                                            ......",
".......                                          .......",
"... ....                                        .... ...",
"...  ....                                      ....  ...",
"...   ....                                    ....   ...",
"...    ....                                  ....    ...",
"...     ....                                ....     ...",
"...      ....                              ....      ...",
"...       ....                            ....       ...",
"...        ....                          ....        ...",
"...         ....                        ....         ...",
"...          ....                      ....          ...",
"...           ....                    ....           ...",
"...            ....                  ....            ...",
"...             ....                ....             ...",
"...              ....              ....              ...",
"...               ....            ....               ...",
"...                ....          ....                ...",
"...                 ....        ....                 ...",
"...                ......      ......                ...",
"...               ........    ........               ...",
"...              ....  ....  ....  ....              ...",
"...             ....    ........    ....             ...",
"...            ....      ......      ....            ...",
"...           ....        ....        ....           ...",
"...          ....          ..          ....          ...",
"...         ....                        ....         ...",
"...        ....                          ....        ...",
"...       ....                            ....       ...",
"...      ....                              ....      ...",
"...     ....                                ....     ...",
"...    ....                                  ....    ...",
"....  ....                                    ....   ...",
" ... ....                                      .... ... ",
" ...................................................... ",
"  ....................................................  ",
"    ................................................    "};
