/* XPM */
static char * tomato_rest_xpm[] = {
"12 12 89 1",
" 	c None",
".	c #8E4832",
"+	c #733E31",
"@	c #4D2921",
"#	c #4A2D20",
"$	c #2A1D14",
"%	c #522D22",
"&	c #5F3629",
"*	c #984E34",
"=	c #8C5740",
"-	c #4D392B",
";	c #492C23",
">	c #422E22",
",	c #2D2217",
"'	c #42281C",
")	c #5E3226",
"!	c #5D3025",
"~	c #643326",
"{	c #7B3A29",
"]	c #A6583A",
"^	c #7A604C",
"/	c #7C4D3E",
"(	c #8E4C38",
"_	c #955035",
":	c #944F30",
"<	c #674233",
"[	c #68362A",
"}	c #5F231D",
"|	c #62211C",
"1	c #6D2A1F",
"2	c #74382A",
"3	c #904B38",
"4	c #8A4E3C",
"5	c #753F33",
"6	c #72392E",
"7	c #80402C",
"8	c #834229",
"9	c #783928",
"0	c #642820",
"a	c #5D201D",
"b	c #5C1B18",
"c	c #6C271E",
"d	c #6C2920",
"e	c #662A24",
"f	c #5D2621",
"g	c #5A1E1A",
"h	c #65201B",
"i	c #6E261E",
"j	c #6F2A1F",
"k	c #6A271E",
"l	c #712E29",
"m	c #64211E",
"n	c #601A18",
"o	c #69231D",
"p	c #66231C",
"q	c #5C1918",
"r	c #561816",
"s	c #591817",
"t	c #661E1A",
"u	c #671E1B",
"v	c #662320",
"w	c #611C1B",
"x	c #611B19",
"y	c #651D1B",
"z	c #5F1C19",
"A	c #5E1A18",
"B	c #601B1A",
"C	c #621A18",
"D	c #601C18",
"E	c #5E1918",
"F	c #5B1817",
"G	c #5A1816",
"H	c #571917",
"I	c #581816",
"J	c #561716",
"K	c #521414",
"L	c #4E1514",
"M	c #4B1413",
"N	c #521614",
"O	c #561616",
"P	c #501514",
"Q	c #4D1513",
"R	c #4A1212",
"S	c #431111",
"T	c #3E1010",
"U	c #4B1313",
"V	c #3A0E0E",
"W	c #350D0D",
"X	c #380E0E",
"            ",
"  .+@#$%&   ",
" *=-;>,')!~ ",
"{]^/(_:<[}|1",
"234567890abc",
"defghijklmno",
"pqrsntutvwxy",
"pzAAAnnnnnBC",
"DEFGssGGGqAF",
"HIJKLMMLNOJP",
" QLRSTTSMPU ",
"   TVWWXT   "};
