/* XPM */
static char * tomato_work_xpm[] = {
"13 13 93 2",
"  	c None",
". 	c #DC5631",
"+ 	c #BB5433",
"@ 	c #C63D25",
"# 	c #5D3719",
"$ 	c #C73D21",
"% 	c #A05126",
"& 	c #F86036",
"* 	c #ED5F35",
"= 	c #F09C7C",
"- 	c #8F5C32",
"; 	c #632915",
"> 	c #353514",
", 	c #5A2A11",
"' 	c #B1421D",
") 	c #B04624",
"! 	c #EE4618",
"~ 	c #F3370D",
"{ 	c #EE7C56",
"] 	c #CCA78B",
"^ 	c #D37F64",
"/ 	c #EA8665",
"( 	c #F18C60",
"_ 	c #E27445",
": 	c #D14426",
"< 	c #C21508",
"[ 	c #CB1906",
"} 	c #F41F04",
"| 	c #F03C0E",
"1 	c #E05236",
"2 	c #DC6D53",
"3 	c #CE3F29",
"4 	c #DD371C",
"5 	c #EE4D1F",
"6 	c #EA4418",
"7 	c #D0210C",
"8 	c #B8140C",
"9 	c #CB0C02",
"0 	c #EC2708",
"a 	c #EB3009",
"b 	c #CB1205",
"c 	c #B30C04",
"d 	c #B50500",
"e 	c #D00B00",
"f 	c #DF1301",
"g 	c #D91301",
"h 	c #D91E14",
"i 	c #C40500",
"j 	c #CD0A03",
"k 	c #E50B00",
"l 	c #E52606",
"m 	c #CA0A02",
"n 	c #BD0400",
"o 	c #C10301",
"p 	c #C60400",
"q 	c #CB0600",
"r 	c #CB0700",
"s 	c #CA0600",
"t 	c #C80500",
"u 	c #CA0702",
"v 	c #D60400",
"w 	c #CE251A",
"x 	c #C00500",
"y 	c #BB0400",
"z 	c #BB0500",
"A 	c #BA0200",
"B 	c #BC0200",
"C 	c #C10402",
"D 	c #C10400",
"E 	c #B20200",
"F 	c #AA100D",
"G 	c #B30200",
"H 	c #B10300",
"I 	c #A70100",
"J 	c #9C0100",
"K 	c #960100",
"L 	c #9B0100",
"M 	c #A90300",
"N 	c #AE0300",
"O 	c #880000",
"P 	c #890100",
"Q 	c #940100",
"R 	c #810000",
"S 	c #780000",
"T 	c #820000",
"U 	c #9A0200",
"V 	c #830100",
"W 	c #5F0404",
"X 	c #5C0000",
"Y 	c #580000",
"Z 	c #540000",
"` 	c #5C0303",
" .	c #612324",
"                          ",
"                          ",
"      . + @ # $ % &       ",
"    * = - ; > , ' ) !     ",
"  ~ { ] ^ / ( _ : < [ }   ",
"  | 1 2 3 4 5 6 7 8 9 0   ",
"  a b c d e f g h i j k   ",
"  l m n o p q r s t u v   ",
"  w i x y z y A B C D E   ",
"  F G H I J K L M G N O   ",
"    P J Q R S T Q U V     ",
"        W X Y Z `  .      ",
"                          "};
